<svg baseProfile="full" height="330.0mm" version="1.1" width="372.6mm" xmlns="http://www.w3.org/2000/svg" xmlns:ev="http://www.w3.org/2001/xml-events" xmlns:xlink="http://www.w3.org/1999/xlink"><defs /><rect fill="rgb(255,255,255)" height="100%" width="100%" x="0" y="0" /><g fill="black" id="shapes"><rect height="40.0mm" width="40.0mm" x="65.0mm" y="25.0mm" /></g><g fill="black" id="shapes"><rect height="40.0mm" width="40.0mm" x="145.0mm" y="25.0mm" /></g><g fill="black" id="shapes"><rect height="40.0mm" width="40.0mm" x="225.0mm" y="25.0mm" /></g><g fill="black" id="shapes"><rect height="40.0mm" width="40.0mm" x="305.0mm" y="25.0mm" /></g><g fill="black" id="shapes"><rect height="40.0mm" width="40.0mm" x="25.0mm" y="65.0mm" /></g><g fill="black" id="shapes"><rect height="40.0mm" width="40.0mm" x="105.0mm" y="65.0mm" /></g><g fill="black" id="shapes"><rect height="40.0mm" width="40.0mm" x="185.0mm" y="65.0mm" /></g><g fill="black" id="shapes"><rect height="40.0mm" width="40.0mm" x="265.0mm" y="65.0mm" /></g><g fill="black" id="shapes"><rect height="40.0mm" width="40.0mm" x="65.0mm" y="105.0mm" /></g><g fill="black" id="shapes"><rect height="40.0mm" width="40.0mm" x="145.0mm" y="105.0mm" /></g><g fill="black" id="shapes"><rect height="40.0mm" width="40.0mm" x="225.0mm" y="105.0mm" /></g><g fill="black" id="shapes"><rect height="40.0mm" width="40.0mm" x="305.0mm" y="105.0mm" /></g><g fill="black" id="shapes"><rect height="40.0mm" width="40.0mm" x="25.0mm" y="145.0mm" /></g><g fill="black" id="shapes"><rect height="40.0mm" width="40.0mm" x="105.0mm" y="145.0mm" /></g><g fill="black" id="shapes"><rect height="40.0mm" width="40.0mm" x="185.0mm" y="145.0mm" /></g><g fill="black" id="shapes"><rect height="40.0mm" width="40.0mm" x="265.0mm" y="145.0mm" /></g><g fill="black" id="shapes"><rect height="40.0mm" width="40.0mm" x="65.0mm" y="185.0mm" /></g><g fill="black" id="shapes"><rect height="40.0mm" width="40.0mm" x="145.0mm" y="185.0mm" /></g><g fill="black" id="shapes"><rect height="40.0mm" width="40.0mm" x="225.0mm" y="185.0mm" /></g><g fill="black" id="shapes"><rect height="40.0mm" width="40.0mm" x="305.0mm" y="185.0mm" /></g><g fill="black" id="shapes"><rect height="40.0mm" width="40.0mm" x="25.0mm" y="225.0mm" /></g><g fill="black" id="shapes"><rect height="40.0mm" width="40.0mm" x="105.0mm" y="225.0mm" /></g><g fill="black" id="shapes"><rect height="40.0mm" width="40.0mm" x="185.0mm" y="225.0mm" /></g><g fill="black" id="shapes"><rect height="40.0mm" width="40.0mm" x="265.0mm" y="225.0mm" /></g><g fill="black" id="shapes"><rect height="40.0mm" width="40.0mm" x="65.0mm" y="265.0mm" /></g><g fill="black" id="shapes"><rect height="40.0mm" width="40.0mm" x="145.0mm" y="265.0mm" /></g><g fill="black" id="shapes"><rect height="40.0mm" width="40.0mm" x="225.0mm" y="265.0mm" /></g><g fill="black" id="shapes"><rect height="40.0mm" width="40.0mm" x="305.0mm" y="265.0mm" /></g><text fill="#bbb" font-family="Arial" font-size="5.0mm" font-weight="normal" stroke="none" x="25.0mm" y="15.0mm">7x8 @ 40.0 mm cameracalibrator.com</text><line stroke="#bbb" stroke-width="1mm" x1="245.0mm" x2="345.0mm" y1="317.5mm" y2="317.5mm" /><text fill="#bbb" font-family="Arial" font-size="5.0mm" font-weight="normal" stroke="none" x="245.0mm" y="316.5mm">100 mm</text></svg>
