<svg baseProfile="full" height="310.0mm" version="1.1" width="350.0mm" xmlns="http://www.w3.org/2000/svg" xmlns:ev="http://www.w3.org/2001/xml-events" xmlns:xlink="http://www.w3.org/1999/xlink"><defs /><rect fill="rgb(255,255,255)" height="100%" width="100%" x="0" y="0" /><g fill="black" id="shapes"><circle cx="35.0mm" cy="35.0mm" r="10.0mm" /></g><g fill="black" id="shapes"><circle cx="75.0mm" cy="35.0mm" r="10.0mm" /></g><g fill="black" id="shapes"><circle cx="115.0mm" cy="35.0mm" r="10.0mm" /></g><g fill="black" id="shapes"><circle cx="155.0mm" cy="35.0mm" r="10.0mm" /></g><g fill="black" id="shapes"><circle cx="195.0mm" cy="35.0mm" r="10.0mm" /></g><g fill="black" id="shapes"><circle cx="235.0mm" cy="35.0mm" r="10.0mm" /></g><g fill="black" id="shapes"><circle cx="275.0mm" cy="35.0mm" r="10.0mm" /></g><g fill="black" id="shapes"><circle cx="315.0mm" cy="35.0mm" r="10.0mm" /></g><g fill="black" id="shapes"><circle cx="55.0mm" cy="55.0mm" r="10.0mm" /></g><g fill="black" id="shapes"><circle cx="95.0mm" cy="55.0mm" r="10.0mm" /></g><g fill="black" id="shapes"><circle cx="135.0mm" cy="55.0mm" r="10.0mm" /></g><g fill="black" id="shapes"><circle cx="175.0mm" cy="55.0mm" r="10.0mm" /></g><g fill="black" id="shapes"><circle cx="215.0mm" cy="55.0mm" r="10.0mm" /></g><g fill="black" id="shapes"><circle cx="255.0mm" cy="55.0mm" r="10.0mm" /></g><g fill="black" id="shapes"><circle cx="295.0mm" cy="55.0mm" r="10.0mm" /></g><g fill="black" id="shapes"><circle cx="35.0mm" cy="75.0mm" r="10.0mm" /></g><g fill="black" id="shapes"><circle cx="75.0mm" cy="75.0mm" r="10.0mm" /></g><g fill="black" id="shapes"><circle cx="115.0mm" cy="75.0mm" r="10.0mm" /></g><g fill="black" id="shapes"><circle cx="155.0mm" cy="75.0mm" r="10.0mm" /></g><g fill="black" id="shapes"><circle cx="195.0mm" cy="75.0mm" r="10.0mm" /></g><g fill="black" id="shapes"><circle cx="235.0mm" cy="75.0mm" r="10.0mm" /></g><g fill="black" id="shapes"><circle cx="275.0mm" cy="75.0mm" r="10.0mm" /></g><g fill="black" id="shapes"><circle cx="315.0mm" cy="75.0mm" r="10.0mm" /></g><g fill="black" id="shapes"><circle cx="55.0mm" cy="95.0mm" r="10.0mm" /></g><g fill="black" id="shapes"><circle cx="95.0mm" cy="95.0mm" r="10.0mm" /></g><g fill="black" id="shapes"><circle cx="135.0mm" cy="95.0mm" r="10.0mm" /></g><g fill="black" id="shapes"><circle cx="175.0mm" cy="95.0mm" r="10.0mm" /></g><g fill="black" id="shapes"><circle cx="215.0mm" cy="95.0mm" r="10.0mm" /></g><g fill="black" id="shapes"><circle cx="255.0mm" cy="95.0mm" r="10.0mm" /></g><g fill="black" id="shapes"><circle cx="295.0mm" cy="95.0mm" r="10.0mm" /></g><g fill="black" id="shapes"><circle cx="35.0mm" cy="115.0mm" r="10.0mm" /></g><g fill="black" id="shapes"><circle cx="75.0mm" cy="115.0mm" r="10.0mm" /></g><g fill="black" id="shapes"><circle cx="115.0mm" cy="115.0mm" r="10.0mm" /></g><g fill="black" id="shapes"><circle cx="155.0mm" cy="115.0mm" r="10.0mm" /></g><g fill="black" id="shapes"><circle cx="195.0mm" cy="115.0mm" r="10.0mm" /></g><g fill="black" id="shapes"><circle cx="235.0mm" cy="115.0mm" r="10.0mm" /></g><g fill="black" id="shapes"><circle cx="275.0mm" cy="115.0mm" r="10.0mm" /></g><g fill="black" id="shapes"><circle cx="315.0mm" cy="115.0mm" r="10.0mm" /></g><g fill="black" id="shapes"><circle cx="55.0mm" cy="135.0mm" r="10.0mm" /></g><g fill="black" id="shapes"><circle cx="95.0mm" cy="135.0mm" r="10.0mm" /></g><g fill="black" id="shapes"><circle cx="135.0mm" cy="135.0mm" r="10.0mm" /></g><g fill="black" id="shapes"><circle cx="175.0mm" cy="135.0mm" r="10.0mm" /></g><g fill="black" id="shapes"><circle cx="215.0mm" cy="135.0mm" r="10.0mm" /></g><g fill="black" id="shapes"><circle cx="255.0mm" cy="135.0mm" r="10.0mm" /></g><g fill="black" id="shapes"><circle cx="295.0mm" cy="135.0mm" r="10.0mm" /></g><g fill="black" id="shapes"><circle cx="35.0mm" cy="155.0mm" r="10.0mm" /></g><g fill="black" id="shapes"><circle cx="75.0mm" cy="155.0mm" r="10.0mm" /></g><g fill="black" id="shapes"><circle cx="115.0mm" cy="155.0mm" r="10.0mm" /></g><g fill="black" id="shapes"><circle cx="155.0mm" cy="155.0mm" r="10.0mm" /></g><g fill="black" id="shapes"><circle cx="195.0mm" cy="155.0mm" r="10.0mm" /></g><g fill="black" id="shapes"><circle cx="235.0mm" cy="155.0mm" r="10.0mm" /></g><g fill="black" id="shapes"><circle cx="275.0mm" cy="155.0mm" r="10.0mm" /></g><g fill="black" id="shapes"><circle cx="315.0mm" cy="155.0mm" r="10.0mm" /></g><g fill="black" id="shapes"><circle cx="55.0mm" cy="175.0mm" r="10.0mm" /></g><g fill="black" id="shapes"><circle cx="95.0mm" cy="175.0mm" r="10.0mm" /></g><g fill="black" id="shapes"><circle cx="135.0mm" cy="175.0mm" r="10.0mm" /></g><g fill="black" id="shapes"><circle cx="175.0mm" cy="175.0mm" r="10.0mm" /></g><g fill="black" id="shapes"><circle cx="215.0mm" cy="175.0mm" r="10.0mm" /></g><g fill="black" id="shapes"><circle cx="255.0mm" cy="175.0mm" r="10.0mm" /></g><g fill="black" id="shapes"><circle cx="295.0mm" cy="175.0mm" r="10.0mm" /></g><g fill="black" id="shapes"><circle cx="35.0mm" cy="195.0mm" r="10.0mm" /></g><g fill="black" id="shapes"><circle cx="75.0mm" cy="195.0mm" r="10.0mm" /></g><g fill="black" id="shapes"><circle cx="115.0mm" cy="195.0mm" r="10.0mm" /></g><g fill="black" id="shapes"><circle cx="155.0mm" cy="195.0mm" r="10.0mm" /></g><g fill="black" id="shapes"><circle cx="195.0mm" cy="195.0mm" r="10.0mm" /></g><g fill="black" id="shapes"><circle cx="235.0mm" cy="195.0mm" r="10.0mm" /></g><g fill="black" id="shapes"><circle cx="275.0mm" cy="195.0mm" r="10.0mm" /></g><g fill="black" id="shapes"><circle cx="315.0mm" cy="195.0mm" r="10.0mm" /></g><g fill="black" id="shapes"><circle cx="55.0mm" cy="215.0mm" r="10.0mm" /></g><g fill="black" id="shapes"><circle cx="95.0mm" cy="215.0mm" r="10.0mm" /></g><g fill="black" id="shapes"><circle cx="135.0mm" cy="215.0mm" r="10.0mm" /></g><g fill="black" id="shapes"><circle cx="175.0mm" cy="215.0mm" r="10.0mm" /></g><g fill="black" id="shapes"><circle cx="215.0mm" cy="215.0mm" r="10.0mm" /></g><g fill="black" id="shapes"><circle cx="255.0mm" cy="215.0mm" r="10.0mm" /></g><g fill="black" id="shapes"><circle cx="295.0mm" cy="215.0mm" r="10.0mm" /></g><g fill="black" id="shapes"><circle cx="35.0mm" cy="235.0mm" r="10.0mm" /></g><g fill="black" id="shapes"><circle cx="75.0mm" cy="235.0mm" r="10.0mm" /></g><g fill="black" id="shapes"><circle cx="115.0mm" cy="235.0mm" r="10.0mm" /></g><g fill="black" id="shapes"><circle cx="155.0mm" cy="235.0mm" r="10.0mm" /></g><g fill="black" id="shapes"><circle cx="195.0mm" cy="235.0mm" r="10.0mm" /></g><g fill="black" id="shapes"><circle cx="235.0mm" cy="235.0mm" r="10.0mm" /></g><g fill="black" id="shapes"><circle cx="275.0mm" cy="235.0mm" r="10.0mm" /></g><g fill="black" id="shapes"><circle cx="315.0mm" cy="235.0mm" r="10.0mm" /></g><g fill="black" id="shapes"><circle cx="55.0mm" cy="255.0mm" r="10.0mm" /></g><g fill="black" id="shapes"><circle cx="95.0mm" cy="255.0mm" r="10.0mm" /></g><g fill="black" id="shapes"><circle cx="135.0mm" cy="255.0mm" r="10.0mm" /></g><g fill="black" id="shapes"><circle cx="175.0mm" cy="255.0mm" r="10.0mm" /></g><g fill="black" id="shapes"><circle cx="215.0mm" cy="255.0mm" r="10.0mm" /></g><g fill="black" id="shapes"><circle cx="255.0mm" cy="255.0mm" r="10.0mm" /></g><g fill="black" id="shapes"><circle cx="295.0mm" cy="255.0mm" r="10.0mm" /></g><g fill="black" id="shapes"><circle cx="35.0mm" cy="275.0mm" r="10.0mm" /></g><g fill="black" id="shapes"><circle cx="75.0mm" cy="275.0mm" r="10.0mm" /></g><g fill="black" id="shapes"><circle cx="115.0mm" cy="275.0mm" r="10.0mm" /></g><g fill="black" id="shapes"><circle cx="155.0mm" cy="275.0mm" r="10.0mm" /></g><g fill="black" id="shapes"><circle cx="195.0mm" cy="275.0mm" r="10.0mm" /></g><g fill="black" id="shapes"><circle cx="235.0mm" cy="275.0mm" r="10.0mm" /></g><g fill="black" id="shapes"><circle cx="275.0mm" cy="275.0mm" r="10.0mm" /></g><g fill="black" id="shapes"><circle cx="315.0mm" cy="275.0mm" r="10.0mm" /></g><text fill="#bbb" font-family="Arial" font-size="5.0mm" font-weight="normal" stroke="none" x="25.0mm" y="15.0mm">7x8 @ 40.0 mm cameracalibrator.com</text><line stroke="#bbb" stroke-width="1mm" x1="225.0mm" x2="325.0mm" y1="297.5mm" y2="297.5mm" /><text fill="#bbb" font-family="Arial" font-size="5.0mm" font-weight="normal" stroke="none" x="225.0mm" y="296.5mm">100 mm</text></svg>